<?xml version="1.0" encoding="UTF-8"?>
<svg height="128px" viewBox="0 0 128 128" width="128px" xmlns="http://www.w3.org/2000/svg" xmlns:xlink="http://www.w3.org/1999/xlink">
    <linearGradient id="a" gradientTransform="matrix(0.145643 0 0 0.253657 18.999628 229.796997)" gradientUnits="userSpaceOnUse" x1="88.595886" x2="536.595886" y1="-449.394012" y2="-449.394012">
        <stop offset="0" stop-color="#e66100"/>
        <stop offset="0.0500001" stop-color="#ffa348"/>
        <stop offset="0.099807" stop-color="#e66100"/>
        <stop offset="0.900001" stop-color="#e66100"/>
        <stop offset="0.950001" stop-color="#ffa348"/>
        <stop offset="1" stop-color="#e66100"/>
    </linearGradient>
    <linearGradient id="b" gradientTransform="matrix(0.145643 0 0 0.253657 7.834626 217.132019)" gradientUnits="userSpaceOnUse" x1="88.595886" x2="536.595886" y1="-449.394012" y2="-449.394012">
        <stop offset="0" stop-color="#3584e4"/>
        <stop offset="0.0500001" stop-color="#62a0ea"/>
        <stop offset="0.099807" stop-color="#1a5fb4"/>
        <stop offset="0.900001" stop-color="#1a5fb4"/>
        <stop offset="0.950001" stop-color="#62a0ea"/>
        <stop offset="1" stop-color="#3584e4"/>
    </linearGradient>
    <radialGradient id="c" cx="53.585873" cy="218.916656" gradientTransform="matrix(1 0 0 1.227273 0 -224.758121)" gradientUnits="userSpaceOnUse" r="32.624138">
        <stop offset="0" stop-color="#62a0ea"/>
        <stop offset="1" stop-color="#1c71d8"/>
    </radialGradient>
    <linearGradient id="d" gradientTransform="matrix(0.145643 0 0 0.253657 29.353327 205.529968)" gradientUnits="userSpaceOnUse" x1="88.595886" x2="536.595886" y1="-449.394012" y2="-449.394012">
        <stop offset="0" stop-color="#f6db23"/>
        <stop offset="0.0500001" stop-color="#faeb87"/>
        <stop offset="0.099807" stop-color="#e5a50a"/>
        <stop offset="0.900001" stop-color="#e5a50a"/>
        <stop offset="0.950001" stop-color="#faeb87"/>
        <stop offset="1" stop-color="#f6db23"/>
    </linearGradient>
    <radialGradient id="e" cx="75.500969" cy="204.205841" gradientTransform="matrix(1 0 0 1.227273 0 -222.121296)" gradientUnits="userSpaceOnUse" r="32.624138">
        <stop offset="0" stop-color="#f8e45c"/>
        <stop offset="1" stop-color="#f5c211"/>
    </radialGradient>
    <radialGradient id="f" cx="75.813843" cy="204.338531" gradientTransform="matrix(1 0 0 1.600156 0 -298.478539)" gradientUnits="userSpaceOnUse" r="14.49435">
        <stop offset="0" stop-color="#c061cb"/>
        <stop offset="1" stop-color="#9141ac"/>
    </radialGradient>
    <symbol id="g" overflow="visible">
        <path d="m 4.65625 0.125 c 0.890625 0 1.90625 -0.25 2.53125 -0.59375 l -0.453125 -1.46875 c -0.46875 0.15625 -1.0625 0.265625 -1.578125 0.265625 c -1.640625 0 -2.59375 -0.984375 -2.59375 -2.578125 c 0 -1.5 0.84375 -2.265625 2.328125 -2.265625 c 0.640625 0 1.390625 0.109375 1.84375 0.3125 l 0.5625 -1.609375 c -0.796875 -0.34375 -1.5625 -0.515625 -2.375 -0.515625 c -2.640625 0 -4.484375 1.703125 -4.484375 4.28125 c 0 2.5 1.734375 4.171875 4.21875 4.171875 z m 0 0"/>
    </symbol>
    <symbol id="h" overflow="visible">
        <path d="m 4.421875 0 h 1.484375 v -3.21875 c 0 -1.75 -0.96875 -2.703125 -2.859375 -2.703125 c -0.90625 0 -1.859375 0.21875 -2.578125 0.578125 l 0.46875 1.375 c 0.59375 -0.203125 1.15625 -0.3125 1.671875 -0.3125 c 0.796875 0 1.265625 0.265625 1.296875 0.78125 c -2.421875 0.0625 -3.515625 0.640625 -3.515625 1.875 c 0 1.046875 0.796875 1.75 2.046875 1.75 c 0.75 0 1.328125 -0.25 1.765625 -0.734375 z m -0.515625 -1.671875 c -0.21875 0.171875 -0.46875 0.265625 -0.765625 0.265625 c -0.40625 0 -0.6875 -0.21875 -0.6875 -0.515625 c 0 -0.375 0.390625 -0.53125 1.453125 -0.5625 z m 0 0"/>
    </symbol>
    <symbol id="i" overflow="visible">
        <path d="m 0.734375 0 h 2.046875 v -3.40625 c 0.3125 -0.328125 0.703125 -0.515625 1.140625 -0.515625 c 0.265625 0 0.59375 0.046875 0.828125 0.140625 l 0.46875 -1.875 c -0.234375 -0.109375 -0.59375 -0.1875 -0.953125 -0.1875 c -0.6875 0 -1.328125 0.34375 -1.765625 0.953125 l -0.171875 -0.90625 h -1.59375 z m 0 0"/>
    </symbol>
    <symbol id="j" overflow="visible">
        <path d="m 2.84375 0.125 c 0.75 0 1.390625 -0.34375 1.8125 -0.921875 l 0.40625 0.796875 h 1.25 v -8.734375 h -1.953125 v 3.203125 c -0.34375 -0.25 -0.765625 -0.390625 -1.265625 -0.390625 c -1.609375 0 -2.703125 1.21875 -2.703125 3.078125 c 0 1.796875 1.03125 2.96875 2.453125 2.96875 z m 1.515625 -2.109375 c -0.203125 0.25 -0.515625 0.40625 -0.875 0.40625 c -0.640625 0 -1.015625 -0.5 -1.015625 -1.359375 c 0 -0.796875 0.375 -1.265625 1 -1.265625 c 0.359375 0 0.671875 0.140625 0.890625 0.40625 z m 0 0"/>
    </symbol>
    <symbol id="k" overflow="visible">
        <path d="m 2.765625 0.125 c 1.75 0 2.75 -0.734375 2.75 -1.984375 c 0 -1.421875 -1.296875 -1.65625 -2.21875 -1.8125 c -0.5 -0.09375 -0.890625 -0.15625 -0.890625 -0.390625 c 0 -0.203125 0.296875 -0.3125 0.859375 -0.3125 c 0.453125 0 1.03125 0.078125 1.609375 0.21875 l 0.390625 -1.46875 c -0.5625 -0.1875 -1.34375 -0.296875 -2.03125 -0.296875 c -1.796875 0 -2.765625 0.6875 -2.765625 1.953125 c 0 1.4375 1.234375 1.625 2.125 1.765625 c 0.5 0.078125 0.890625 0.140625 0.890625 0.40625 c 0 0.21875 -0.3125 0.375 -0.828125 0.375 c -0.5 0 -1.234375 -0.140625 -1.84375 -0.359375 l -0.4375 1.46875 c 0.671875 0.265625 1.546875 0.4375 2.390625 0.4375 z m 0 0"/>
    </symbol>
    <path d="m 37.835938 38.695312 h 53.382812 c 3.277344 0 5.933594 2.652344 5.933594 5.929688 v 65.25 c 0 3.273438 -2.65625 5.929688 -5.933594 5.929688 h -53.382812 c -3.277344 0 -5.933594 -2.65625 -5.933594 -5.929688 v -65.25 c 0 -3.277344 2.65625 -5.929688 5.933594 -5.929688 z m 0 0" fill="url(#a)"/>
    <path d="m 37.835938 32.761719 h 53.382812 c 3.277344 0 5.933594 2.65625 5.933594 5.933593 v 68.210938 c 0 3.277344 -2.65625 5.933594 -5.933594 5.933594 h -53.382812 c -3.277344 0 -5.933594 -2.65625 -5.933594 -5.933594 v -68.210938 c 0 -3.277343 2.65625 -5.933593 5.933594 -5.933593 z m 0 0" fill="#ff7800"/>
    <path d="m 26.667969 26.027344 h 53.386719 c 3.277343 0 5.929687 2.65625 5.929687 5.933594 v 65.246093 c 0 3.277344 -2.652344 5.933594 -5.929687 5.933594 h -53.386719 c -3.273438 0 -5.929688 -2.65625 -5.929688 -5.933594 v -65.246093 c 0 -3.277344 2.65625 -5.933594 5.929688 -5.933594 z m 0 0" fill="url(#b)"/>
    <path d="m 26.667969 20.097656 h 53.386719 c 3.277343 0 5.929687 2.65625 5.929687 5.929688 v 68.214844 c 0 3.277343 -2.652344 5.933593 -5.929687 5.933593 h -53.386719 c -3.273438 0 -5.929688 -2.65625 -5.929688 -5.933593 v -68.214844 c 0 -3.273438 2.65625 -5.929688 5.929688 -5.929688 z m 0 0" fill="url(#c)"/>
    <path d="m 48.1875 14.425781 h 53.386719 c 3.273437 0 5.929687 2.65625 5.929687 5.933594 v 65.246094 c 0 3.277343 -2.65625 5.933593 -5.929687 5.933593 h -53.386719 c -3.273438 0 -5.929688 -2.65625 -5.929688 -5.933593 v -65.246094 c 0 -3.277344 2.65625 -5.933594 5.929688 -5.933594 z m 0 0" fill="url(#d)"/>
    <path d="m 48.1875 8.496094 h 53.386719 c 3.273437 0 5.929687 2.65625 5.929687 5.929687 v 68.214844 c 0 3.277344 -2.65625 5.933594 -5.929687 5.933594 h -53.386719 c -3.273438 0 -5.929688 -2.65625 -5.929688 -5.933594 v -68.214844 c 0 -3.273437 2.65625 -5.929687 5.929688 -5.929687 z m 0 0" fill="url(#e)"/>
    <g fill="#613583">
        <use x="58.761719" xlink:href="#g" y="80.508789"/>
        <use x="66.761719" xlink:href="#h" y="80.508789"/>
        <use x="73.761719" xlink:href="#i" y="80.508789"/>
        <use x="78.761719" xlink:href="#j" y="80.508789"/>
        <use x="85.761719" xlink:href="#k" y="80.508789"/>
    </g>
    <g fill-rule="evenodd">
        <path d="m 77.691406 17.550781 c -0.96875 0.03125 -1.859375 0.542969 -2.371094 1.367188 l -14.492187 23.1875 c -0.289063 0.460937 -0.441406 0.996093 -0.4375 1.539062 h -0.003906 v 2.898438 h 8.695312 v 14.492187 c 0.007813 2.910156 3.8125 4 5.359375 1.535156 l 14.492188 -23.191406 c 0.289062 -0.460937 0.441406 -0.992187 0.4375 -1.535156 h 0.003906 v -2.898438 h -8.695312 v -14.496093 c 0 -0.785157 -0.316407 -1.535157 -0.878907 -2.082031 c -0.5625 -0.542969 -1.324219 -0.839844 -2.109375 -0.816407 z m 0 0" fill="#613583"/>
        <path d="m 77.691406 15.550781 c -0.96875 0.03125 -1.859375 0.542969 -2.371094 1.367188 l -14.492187 23.1875 c -0.289063 0.460937 -0.441406 0.996093 -0.4375 1.539062 h -0.003906 v 2.898438 h 8.695312 v 14.492187 c 0.007813 2.910156 3.8125 4 5.359375 1.535156 l 14.492188 -23.191406 c 0.289062 -0.460937 0.441406 -0.992187 0.4375 -1.535156 h 0.003906 v -2.898438 h -8.695312 v -14.496093 c 0 -0.785157 -0.316407 -1.535157 -0.878907 -2.082031 c -0.5625 -0.542969 -1.324219 -0.839844 -2.109375 -0.816407 z m 0 0" fill="url(#f)"/>
    </g>
</svg>
