<?xml version="1.0" encoding="UTF-8"?>
<svg height="16px" viewBox="0 0 16 16" width="16px" xmlns="http://www.w3.org/2000/svg">
    <path d="m 3.746094 15.984375 c -0.398438 -0.101563 -0.648438 -0.417969 -0.691406 -0.875 l -0.023438 -0.222656 h 4.144531 c 4.597657 0 4.300781 0.011719 4.558594 -0.207031 c 0.070313 -0.0625 0.167969 -0.179688 0.214844 -0.257813 c 0.085937 -0.144531 0.085937 -0.15625 0.101562 -0.804687 l 0.015625 -0.65625 l 0.449219 -0.007813 l 0.445313 -0.007813 l -0.007813 1.195313 c -0.011719 1.183594 -0.011719 1.199219 -0.082031 1.34375 c -0.085938 0.171875 -0.292969 0.375 -0.464844 0.453125 c -0.113281 0.054688 -0.355469 0.058594 -4.34375 0.0625 c -2.320312 0.003906 -4.265625 -0.003906 -4.316406 -0.019531 z m -1.894532 -2.011719 c -0.132812 -0.070312 -0.234374 -0.148437 -0.300781 -0.238281 c -0.210937 -0.28125 -0.199219 0.09375 -0.191406 -5.792969 l 0.007813 -5.332031 l 0.066406 -0.144531 c 0.082031 -0.171875 0.25 -0.347656 0.429687 -0.441406 c 0.125 -0.070313 0.164063 -0.074219 1.109375 -0.082032 l 0.976563 -0.007812 v 5.140625 c 0 5.703125 -0.015625 5.296875 0.207031 5.554687 c 0.0625 0.074219 0.175781 0.167969 0.257812 0.214844 l 0.144532 0.085938 l 6.695312 0.03125 l -0.007812 0.226562 c -0.003906 0.144531 -0.027344 0.277344 -0.066406 0.367188 c -0.074219 0.164062 -0.261719 0.359374 -0.429688 0.441406 c -0.121094 0.058594 -0.21875 0.0625 -4.410156 0.070312 l -4.289063 0.007813 z m 3.660157 -1.839844 c -0.300781 -0.050781 -0.523438 -0.210937 -0.652344 -0.472656 l -0.097656 -0.195312 v -5.367188 c 0 -5.960937 -0.015625 -5.523437 0.210937 -5.785156 c 0.058594 -0.070312 0.183594 -0.167969 0.269532 -0.2148438 l 0.160156 -0.0859374 l 4.222656 -0.00781255 c 4.660156 -0.0078125 4.410156 -0.01953125 4.679688 0.18749975 c 0.074218 0.058594 0.175781 0.179688 0.230468 0.273438 l 0.097656 0.171875 l 0.007813 5.378906 c 0.007813 6.039063 0.027344 5.546875 -0.230469 5.832031 c -0.082031 0.089844 -0.203125 0.183594 -0.300781 0.226563 l -0.167969 0.074219 l -4.144531 0.003906 c -2.277344 0.003906 -4.207031 -0.007813 -4.285156 -0.019532 z m 3.957031 -2.003906 c 0.082031 -0.058594 0.433594 -0.597656 1.441406 -2.207031 c 0.730469 -1.167969 1.34375 -2.175781 1.359375 -2.234375 c 0.019531 -0.058594 0.03125 -0.230469 0.03125 -0.382812 v -0.273438 h -1.5625 l -0.015625 -2.773438 l -0.09375 -0.117187 c -0.195312 -0.257813 -0.574218 -0.277344 -0.789062 -0.042969 c -0.074219 0.082032 -2.550782 4.03125 -2.660156 4.246094 c -0.0625 0.117188 -0.070313 0.1875 -0.070313 0.460938 v 0.324218 h 1.5625 v 2.742188 l 0.070313 0.105468 c 0.160156 0.238282 0.496093 0.308594 0.726562 0.152344 z m 0 0" fill="#241f31"/>
</svg>
